<svg width="960" height="760" viewBox="0 0 960 760" fill="none" xmlns="http://www.w3.org/2000/svg">
  <rect width="960" height="760" rx="44" fill="#F8F3E7"/>
  <circle cx="225" cy="195" r="116" fill="#E9F8ED"/>
  <circle cx="728" cy="168" r="88" fill="#FFF0BF"/>
  <circle cx="781" cy="580" r="122" fill="#E9F8ED"/>
  <rect x="78" y="104" width="324" height="538" rx="36" fill="#0D2B1A"/>
  <rect x="116" y="152" width="246" height="278" rx="28" fill="#143D26"/>
  <rect x="130" y="170" width="90" height="70" rx="16" fill="#F3C14B"/>
  <rect x="234" y="190" width="96" height="92" rx="18" fill="#F8F3E7"/>
  <rect x="160" y="260" width="150" height="108" rx="22" fill="#04E762"/>
  <rect x="132" y="468" width="216" height="18" rx="9" fill="#2B5D3E"/>
  <rect x="132" y="506" width="180" height="18" rx="9" fill="#2B5D3E"/>
  <rect x="132" y="552" width="170" height="52" rx="26" fill="#FFFFFF"/>
  <rect x="328" y="72" width="286" height="606" rx="40" fill="#FFFFFF"/>
  <rect x="374" y="130" width="194" height="208" rx="28" fill="#F7F2E7"/>
  <circle cx="470" cy="205" r="62" fill="#F3C14B"/>
  <rect x="406" y="288" width="128" height="86" rx="16" fill="#04E762"/>
  <rect x="376" y="416" width="194" height="16" rx="8" fill="#D4E7D8"/>
  <rect x="376" y="452" width="164" height="16" rx="8" fill="#D4E7D8"/>
  <rect x="376" y="488" width="118" height="16" rx="8" fill="#D4E7D8"/>
  <rect x="376" y="550" width="190" height="54" rx="27" fill="#EFB927"/>
  <rect x="582" y="122" width="296" height="520" rx="38" fill="#FFF8E3"/>
  <rect x="626" y="176" width="208" height="206" rx="28" fill="#E9F8ED"/>
  <rect x="626" y="420" width="208" height="16" rx="8" fill="#D8E7D8"/>
  <rect x="626" y="458" width="174" height="16" rx="8" fill="#D8E7D8"/>
  <rect x="626" y="496" width="142" height="16" rx="8" fill="#D8E7D8"/>
  <rect x="626" y="550" width="208" height="54" rx="27" fill="#0D2B1A"/>
</svg>
